<?xml version="1.0" encoding="UTF-8" standalone="no"?>
<svg
   fill="#4a4a4a"
   viewBox="0 0 512 512"
   version="1.1"
   id="svg4"
   xmlns="http://www.w3.org/2000/svg"
   xmlns:svg="http://www.w3.org/2000/svg">
  <defs
     id="defs8" />
  <path
     id="rect847"
     style="fill:#ffffff;stroke-width:4;stroke-linecap:round;stroke-linejoin:round"
     d="M 0 0 L 0 512 L 512 512 L 512 0 L 0 0 z M 278.36914 150.99023 C 279.86456 150.98309 281.38281 151.12695 282.90625 151.43164 C 295.09374 153.86914 303.01562 165.72852 300.57812 177.91602 L 299.5 183.25977 C 297.01563 195.77539 292.42187 207.68164 286 218.50977 L 353.5 218.50977 C 365.92187 218.50977 376 228.58789 376 241.00977 C 376 249.68164 371.07812 257.22852 363.85938 260.97852 C 368.96875 265.10352 372.25 271.43165 372.25 278.50977 C 372.25 289.47852 364.375 298.61914 354.01562 300.58789 C 356.07812 304.00977 357.25 307.99415 357.25 312.25977 C 357.25 322.24415 350.73437 330.72853 341.73438 333.63477 C 342.0625 335.18165 342.25 336.82227 342.25 338.50977 C 342.25 350.93165 332.17188 361.00977 319.75 361.00977 L 274.04688 361.00977 C 265.14062 361.00977 256.46875 358.38477 249.0625 353.46289 L 231.01562 341.41602 C 218.5 333.07227 211 319.00977 211 303.96289 L 211 286.00977 L 211 263.50977 L 211 251.83789 C 211 238.15039 217.23438 225.25978 227.875 216.68164 L 231.34375 213.91602 C 243.76563 203.97851 252.25 190.00976 255.34375 174.44727 L 256.42188 169.10352 C 258.55469 158.43945 267.90117 151.04022 278.36914 150.99023 z M 151 226.00977 L 181 226.00977 C 189.29688 226.00977 196 232.7129 196 241.00977 L 196 346.00977 C 196 354.30665 189.29688 361.00977 181 361.00977 L 151 361.00977 C 142.70312 361.00977 136 354.30665 136 346.00977 L 136 241.00977 C 136 232.7129 142.70312 226.00977 151 226.00977 z " />
  <!--! Font Awesome Pro 6.3.0 by @fontawesome - https://fontawesome.com License - https://fontawesome.com/license (Commercial License) Copyright 2023 Fonticons, Inc. -->
</svg>
